# xmcd CD database file
#
# Track frame offsets:
#	150
#	18008
#	29087
#	44040
#	55661
#	69771
#	82707
#	94653
#	108932
#	124611
#
# Disc length: 1821 seconds
#
# Revision: 1
# Processed by: cddbd v1.5.2PL0 Copyright (c) Steve Scherf et al.
# Submitted via: CDex 1.70beta2
#
DISCID=70071b0a
DTITLE=Al Jarreau - My Favorite Things CD 3
DYEAR=1990
DGENRE=Jazz
TTITLE0=Here I am
TTITLE1=Call me
TTITLE2=Let's stay together
TTITLE3=Tired of being alone
TTITLE4=Love and happiness
TTITLE5=Still in love with you
TTITLE6=Look what you've done for me
TTITLE7=You ought to be with me
TTITLE8=Let's get married
TTITLE9=Living for you
EXTD=YEAR: 1990
EXTT0=
EXTT1=
EXTT2=
EXTT3=
EXTT4=
EXTT5=
EXTT6=
EXTT7=
EXTT8=
EXTT9=
PLAYORDER=
